<?xml version="1.0" encoding="iso-8859-1"?>
<!-- Generator: Adobe Illustrator 19.0.0, SVG Export Plug-In . SVG Version: 6.00 Build 0)  -->
<svg version="1.1" id="Layer_1" xmlns="http://www.w3.org/2000/svg" xmlns:xlink="http://www.w3.org/1999/xlink" x="0px" y="0px"
	 viewBox="0 0 346.693 346.693" style="enable-background:new 0 0 346.693 346.693;" xml:space="preserve">
<g id="XMLID_31_">
	<g id="XMLID_48_">
		<path id="XMLID_52_" style="fill:#E1A98C;" d="M272.633,283.677c26.39-24.059,11.154-120.469,11.154-142.407
			C283.787,59.796,241.041,0,173.147,0S62.507,59.796,62.507,141.269c0,21.938-15.236,118.348,11.154,142.407
			C110.42,317.19,235.873,317.19,272.633,283.677z"/>
		<path id="XMLID_49_" style="fill:#D2987B;" d="M283.787,141.269C283.787,59.796,241.041,0,173.147,0v308.811
			c40.553,0,81.106-8.378,99.486-25.135C299.022,259.617,283.787,163.207,283.787,141.269z"/>
	</g>
	<g id="XMLID_45_">
		<path id="XMLID_237_" style="fill:#F3D8B6;" d="M216.536,271.577c0,0-14.458-18.417-14.458-81.376h-26.23h-5.002h-26.23
			c0,62.959-14.458,81.376-14.458,81.376c0,47.368,28.832,48.824,40.688,53.239v1.537c0,0,0.922-0.188,2.501-0.68
			c1.579,0.492,2.501,0.68,2.501,0.68v-1.537C187.704,320.401,216.536,318.945,216.536,271.577z"/>
		<path id="XMLID_238_" style="fill:#EEC8A2;" d="M202.078,190.201h-26.23l-2.667-0.024v135.472
			c1.579,0.492,2.667,0.704,2.667,0.704v-1.537c11.856-4.414,40.688-5.871,40.688-53.239
			C216.536,271.577,202.078,253.16,202.078,190.201z"/>
	</g>
	<g id="XMLID_42_">
		<path id="XMLID_44_" style="fill:#455465;" d="M214.035,224.629c0,0,3.56,81.376-40.688,81.376
			c-38.653,0-40.688-81.376-40.688-81.376c-44.943,0-76.29,36.433-76.29,81.376v40.688h233.955v-40.688
			C290.325,261.063,258.978,224.629,214.035,224.629z"/>
		<path id="XMLID_43_" style="fill:#3A4755;" d="M214.035,224.629c0,0,3.56,81.376-40.688,81.376c-0.068,0-0.133-0.006-0.201-0.007
			v40.694h117.178v-40.688C290.325,261.063,258.978,224.629,214.035,224.629z"/>
	</g>
	<g id="XMLID_39_">
		<path id="XMLID_41_" style="fill:#F3DBC4;" d="M147.724,83.698c-1.621-2.782-3.112-5.444-4.497-8.014
			c-6.846,14.86-21.742,32.812-34.011,40.928c0.742,22.723,4.312,43.465,8.476,51.153c9.042,16.694,29.221,38.956,55.657,38.956
			c26.431,0,46.607-22.262,55.652-38.956c3.914-7.227,7.305-25.989,8.314-47.089C227.816,120.138,166.226,115.452,147.724,83.698z"
			/>
		<path id="XMLID_40_" style="fill:#EDCEAE;" d="M173.147,105.442v101.274c0.068,0,0.134,0.005,0.202,0.005
			c26.431,0,46.607-22.262,55.652-38.956c3.914-7.227,7.305-25.989,8.314-47.089C230.64,120.298,198.24,117.871,173.147,105.442z"/>
	</g>
	<g id="XMLID_35_">
		<path id="XMLID_38_" style="fill:#722234;" d="M249.891,80.05h-1.539c-0.484-2.237-1.054-4.442-1.729-6.6
			c0.042-0.082,0.098-0.153,0.136-0.238c0.6-1.334,0.643-2.822,0.124-4.189c-11.38-29.909-40.579-50.004-72.656-50.004
			c-0.295,0-0.586,0.017-0.881,0.021c-0.295-0.003-0.586-0.021-0.881-0.021c-32.079,0-61.276,20.095-72.651,50
			c-0.522,1.365-0.48,2.852,0.118,4.187c0.039,0.086,0.096,0.159,0.139,0.243c-0.675,2.159-1.244,4.364-1.728,6.601h-1.539
			c-13.904,0-25.176,11.271-25.176,25.176v20.852c0,13.904,11.271,25.176,25.176,25.176h3.738c0.223,0.188,0.458,0.385,0.685,0.576
			h-2.595c0.81,0.035,1.634,0.058,2.432,0.058c0.08,0,0.149-0.003,0.227-0.003c13.667,11.496,35.863,28.462,48.467,33.089
			c2.372,4.216,8.315,6.968,15.329,6.968c9.211,0,16.427-4.817,16.427-10.966s-7.216-10.967-16.427-10.967
			c-5.14,0-9.901,1.557-12.95,4.153c-8.187-3.214-32.832-25.575-39.822-31.588V80.05h-2.714c7.3-28.473,33.046-49.654,63.746-50.054
			c30.7,0.4,56.446,21.581,63.746,50.054h-2.713v71.204h15.512c13.904,0,25.176-11.271,25.176-25.176v-20.852
			C275.067,91.322,263.795,80.05,249.891,80.05z"/>
		<g id="XMLID_36_">
			<path id="XMLID_240_" style="fill:#521627;" d="M249.891,80.05h-1.539c-0.484-2.237-1.054-4.442-1.729-6.6
				c0.042-0.082,0.098-0.153,0.136-0.238c0.6-1.334,0.643-2.822,0.124-4.189c-11.38-29.909-40.579-50.004-72.656-50.004
				c-0.295,0-0.586,0.017-0.881,0.021c-0.067-0.001-0.133-0.003-0.2-0.005v10.969c0.067-0.001,0.133-0.006,0.2-0.007
				c30.7,0.4,56.446,21.581,63.746,50.054h-2.713v71.204h15.512c13.904,0,25.176-11.271,25.176-25.176v-20.852
				C275.067,91.322,263.795,80.05,249.891,80.05z"/>
			<path id="XMLID_241_" style="fill:#521627;" d="M173.147,171.382v19.188c5.029-1.854,8.368-5.414,8.368-9.594
				C181.515,176.796,178.175,173.236,173.147,171.382z"/>
		</g>
	</g>
	<g id="XMLID_32_">
		<path id="XMLID_34_" style="fill:#FFFFFF;" d="M202.69,214.696l2.124,38.557l-31.633,32.346l-31.299-32.346l2.124-38.557
			c-27.652,16.279-46.747,30.277-46.747,30.277l24.99,26.65l29.11,31.06l21.823,23.684l22.156-23.684l29.11-31.06l24.99-26.65
			C249.437,244.973,230.342,230.975,202.69,214.696z"/>
		<path id="XMLID_33_" style="fill:#DEDDE0;" d="M202.69,214.696l2.124,38.557l-31.633,32.346v40.768l22.156-23.684l29.11-31.06
			l24.99-26.65C249.437,244.973,230.342,230.975,202.69,214.696z"/>
	</g>
</g>
<g>
</g>
<g>
</g>
<g>
</g>
<g>
</g>
<g>
</g>
<g>
</g>
<g>
</g>
<g>
</g>
<g>
</g>
<g>
</g>
<g>
</g>
<g>
</g>
<g>
</g>
<g>
</g>
<g>
</g>
</svg>
