<?xml version="1.0"?>
<svg xmlns:rdf="http://www.w3.org/1999/02/22-rdf-syntax-ns#" xmlns="http://www.w3.org/2000/svg" xmlns:cc="http://creativecommons.org/ns#" xmlns:dc="http://purl.org/dc/elements/1.1/" xmlns:svg="http://www.w3.org/2000/svg" id="svg5572" viewBox="0 0 744.09 1052.4" version="1.1">
  <g id="layer1">
    <g id="g6187" stroke="#000" transform="matrix(3.7993 0 0 3.7993 -4183.9 954.19)">
      <path id="path6150" stroke-width=".23457px" d="m1189.5-202.85c-4.2621 0.15653-6.8551 8.6542-12.516 6.2972-6.9677-2.901-11.146 13.539-18.114 12.572-6.9677-0.96701-6.9706 19.823-11.151 16.438-4.1806-3.3845-0.9269 14.023-0.9269 14.023l-23.904 18.809c7.8641 10.206 9.2702 19.706 41.091 25.188 0 0 0.4373 0.16154 1.1568 0.41882l-17.747 39.234-27.267 11.622 16.425 33.505 22.008 22.564 24.178 8.1063 19.481 0.69182-11.801-50.851-10.512-12.303 7.2282-12.654s-20.367-24.27-21.024-25.637c-0.4902-1.0205-0.2475-9.6529-0.093-13.97 6.1894 2.1784 24.073 8.1107 14.226 0.23932-17.083-13.656-5.4935-76.087 9.7501-75.424 9.34 0.40629 19.345 3.0612 27.871-1.4509 12.938-6.847 31.99 37.431 19.486 42.068 9.1394 9.8144 2.7015 34.464 0.4598 40.131 11.109-6.8023 26.909-5.8043 32.52-21.763 0 0-26.941-26.594-25.083-31.912 1.858-5.3185-7.8989-17.405-8.3634-23.207-0.4646-5.802-17.626-8.6998-23.201-15.952-5.5742-7.2525-14.398 0.4846-20.901-5.3174-1.2193-1.0879-2.2928-1.502-3.2764-1.4658zm11.173 49.816-7.8964 12.086c5.1097-4.4186 10.223-3.7863 15.333-0.48613zm31.126 0.47864-7.4365 9.6701c3.2954-0.74174 6.356-4.4775 10.224 1.937zm-12.308 7.0151 6.2654 23.446-7.8964 3.8666-6.5025-6.2822 3.2549-4.3527-5.5757 1.4509-1.3939 5.3174 3.7147 5.8036 8.3634 2.4156 7.4294-3.8665 0.467-6.2822c2.1549-2.243-6.5871-21.185-8.1263-21.517zm-14.004 37.013c-0.3103 0.9314-3.2261 10.268-3.2261 10.268 7.4386-0.90829 13.954 1.6356 20.413 4.42l1.7172-11.465c-12.938 4.7612-16.557-0.4761-18.904-3.2234zm-30.838 4.1283s4.0749 23.576 37.772 24.269c3.3759 0.06942 6.4798-1.0339 9.24-2.7447l-4.6416 27.365s17.737 3.4189 11.496 7.1797c-6.2407 3.7608 3.9426 1.3686 1.3149 6.1551-4.074 7.4211 11.827-3.7672 4.929 3.7544-6.8977 7.5215 7.5545 4.7864 0 9.5729-7.5546 4.7864 15.103 4.4478 5.9061 8.8923s8.2115 1.3665 2.2992 5.811-1.5338 6.3525-1.5338 6.3525l18.394-18.121 8.7621-16.95-36.788-12.647 2.6298-12.654-11.827-6.8356-0.5532-8.1295c6.1919-4.0118 10.584-10.956 12.437-14.202-2.7137 4.0341-10.605 12.707-20.42 12.415-11.496-0.34189-30.22-5.4649-39.417-19.482zm59.837 7.0675c0.4649-0.69098 0.7828-1.2505 0.9269-1.6005 0.2257-0.54819-0.122 0.19084-0.9269 1.6005z"/>
      <path id="path6166" d="m1878.9 564.46c0 278.39-190.85 504.07-426.28 504.07s-426.28-225.68-426.28-504.07 190.85-504.07 426.28-504.07 426.28 225.68 426.28 504.07z" stroke-width="46.946" fill="none" transform="matrix(.20261 0 0 .22395 903.81 -232.01)"/>
    </g>
  </g>
  <metadata>
    <rdf:RDF>
      <cc:Work>
        <dc:format>image/svg+xml</dc:format>
        <dc:type rdf:resource="http://purl.org/dc/dcmitype/StillImage"/>
        <cc:license rdf:resource="http://creativecommons.org/licenses/publicdomain/"/>
        <dc:publisher>
          <cc:Agent rdf:about="http://openclipart.org/">
            <dc:title>Openclipart</dc:title>
          </cc:Agent>
        </dc:publisher>
        <dc:title>George Washington</dc:title>
        <dc:date>2012-03-31T19:54:26</dc:date>
        <dc:description>Caricature of the first American president, George Washington, based on the $1 bill portrait </dc:description>
        <dc:source>http://openclipart.org/detail/169250/george-washington-by-last-dino</dc:source>
        <dc:creator>
          <cc:Agent>
            <dc:title>Last-Dino</dc:title>
          </cc:Agent>
        </dc:creator>
        <dc:subject>
          <rdf:Bag>
            <rdf:li>George</rdf:li>
            <rdf:li>america</rdf:li>
            <rdf:li>b&amp;w</rdf:li>
            <rdf:li>b-w</rdf:li>
            <rdf:li>b/w</rdf:li>
            <rdf:li>black</rdf:li>
            <rdf:li>bw</rdf:li>
            <rdf:li>cartoon</rdf:li>
            <rdf:li>clip art</rdf:li>
            <rdf:li>clipart</rdf:li>
            <rdf:li>dollar</rdf:li>
            <rdf:li>founder</rdf:li>
            <rdf:li>independence</rdf:li>
            <rdf:li>july</rdf:li>
            <rdf:li>money</rdf:li>
            <rdf:li>president</rdf:li>
            <rdf:li>united states</rdf:li>
            <rdf:li>usa</rdf:li>
            <rdf:li>washington</rdf:li>
            <rdf:li>white</rdf:li>
          </rdf:Bag>
        </dc:subject>
      </cc:Work>
      <cc:License rdf:about="http://creativecommons.org/licenses/publicdomain/">
        <cc:permits rdf:resource="http://creativecommons.org/ns#Reproduction"/>
        <cc:permits rdf:resource="http://creativecommons.org/ns#Distribution"/>
        <cc:permits rdf:resource="http://creativecommons.org/ns#DerivativeWorks"/>
      </cc:License>
    </rdf:RDF>
  </metadata>
</svg>
