<svg width="0" height="0" class="hidden">
  <symbol version="1.1" id="avatar2" xmlns="http://www.w3.org/2000/svg" xmlns:xlink="http://www.w3.org/1999/xlink" x="0px" y="0px" xml:space="preserve" viewBox="0 0 466.6 466.6">
    <polygon points="434.248,334.392 281.304,287.152 281.304,274.6 185.304,274.6 185.304,287.16 
	32.352,334.392 40.104,466.6 40.104,466.6 41.304,466.6 425.304,466.6 427.424,466.6 427.424,466.6 "></polygon>
    <polygon points="434.248,334.392 281.304,311.152 281.304,274.6 185.304,274.6 185.304,311.16 
	32.352,334.392 99.512,466.6 99.512,466.6 42,466.6 425.304,466.6 427.424,466.6 427.424,466.6 "></polygon>
    <g>
      <polygon points="348.808,250.6 117.8,250.6 134.296,138.6 332.296,138.6 	"></polygon>
      <path d="M337.968,133.456c0,35.344-51.264,64-104.672,64c-53.376,0-104.656-28.656-104.656-64
		s51.28-64,104.656-64C286.704,69.456,337.968,98.112,337.968,133.456z"></path>
    </g>
    <rect x="185.304" y="186.6" width="96" height="112"></rect>
    <polygon points="280.824,288.68 280.336,186.6 186.28,186.6 234.032,321.944 "></polygon>
    <path d="M308.264,102.112c0,72.24-36.624,137.616-74.944,137.616s-74.96-65.376-74.96-137.616
	S195,17.824,233.32,17.824S308.264,29.872,308.264,102.112z"></path>
    <path d="M233.32,17.824c38.32,0,74.944,12.048,74.944,84.288S271.64,239.728,233.32,239.728"></path>
    <g>
      <path d="M243.736,13.072c0,0-69.656,53.328,89.92,117.568c0,0,3.064-70.688-23-101.504
		c-26.08-30.8-66.44-27-66.44-27L243.736,13.072z"></path>
      <path d="M268.688,3.96c0,0,64.168,71.112-135.672,132.048c0,0-11.784-75.976,18.984-108.528
		c30.76-32.552,85.92-27.144,85.92-27.144L268.688,3.96z"></path>
    </g>
    <path d="M102.016,466.6h131.872c0.344,0,0.568-1.672,0.568-3.2c0-20.16-69.776-51.84-106.496-51.84
	s-26.496,31.368-26.496,51.52C101.464,464.608,101.688,466.6,102.016,466.6z"></path>
    <path d="M102.016,466.6h131.872c0.344,0,0.568-1.672,0.568-3.2c0-20.16-69.776-43.84-106.496-43.84
	s-26.496,23.368-26.496,43.52C101.464,464.608,101.688,466.6,102.016,466.6z"></path>
    <path d="M364.584,466.6h-131.88c-0.328,0-0.56-1.672-0.56-3.2c0-20.16,69.784-51.84,106.504-51.84
	s26.496,31.368,26.496,51.52C365.144,464.608,364.92,466.6,364.584,466.6z"></path>
    <path d="M364.584,466.6h-131.88c-0.328,0-0.56-1.672-0.56-3.2c0-20.16,69.784-43.84,106.504-43.84
	s26.496,23.368,26.496,43.52C365.144,464.608,364.92,466.6,364.584,466.6z"></path>
    <path d="M235.768,141.648c0,13.76-18.92,24.912-42.296,24.912c-23.36,0-42.296-33.952-42.296-47.72
	s-8.952-33.192,11.248-21.008C199.608,120.288,235.768,127.888,235.768,141.648z"></path>
    <path d="M235.768,141.648c0,13.76-18.92,24.912-42.296,24.912c-23.36,0-42.296-33.952-42.296-47.72"></path>
    <path d="M218.624,141.768c0,6.808-11.096,12.328-24.752,12.328c-13.672,0-24.768-16.792-24.768-23.584
	c0-6.816-5.232-16.448,6.592-10.408C197.472,131.2,218.624,134.96,218.624,141.768z"></path>
    <path d="M218.624,141.768c0,6.808-11.096,12.328-24.752,12.328c-13.672,0-24.768-16.792-24.768-23.584"></path>
    <path d="M230.84,141.648c0,13.76,18.92,24.912,42.296,24.912c23.36,0,42.296-33.952,42.296-47.72
	s8.952-33.192-11.248-21.008C267,120.288,230.84,127.888,230.84,141.648z"></path>
    <path d="M230.84,141.648c0,13.76,18.92,24.912,42.296,24.912c23.36,0,42.296-33.952,42.296-47.72"></path>
    <path d="M247.984,141.768c0,6.808,11.096,12.328,24.768,12.328s24.752-16.792,24.752-23.584
	c0-6.816,5.248-16.448-6.576-10.408C269.136,131.2,247.984,134.96,247.984,141.768z"></path>
    <path d="M247.984,141.768c0,6.808,11.096,12.328,24.768,12.328s24.752-16.792,24.752-23.584"></path>
    <g></g>
    <g></g>
    <g></g>
    <g></g>
    <g></g>
    <g></g>
    <g></g>
    <g></g>
    <g></g>
    <g></g>
    <g></g>
    <g></g>
    <g></g>
    <g></g>
    <g></g>
  </symbol>
  <symbol version="1.1" id="avatar3" xmlns="http://www.w3.org/2000/svg" xmlns:xlink="http://www.w3.org/1999/xlink" x="0px" y="0px" xml:space="preserve" viewBox="0 0 346.693 346.693">
    <g id="XMLID_31_">
      <g id="XMLID_48_">
        <path id="XMLID_52_" d="M272.633,283.677c26.39-24.059,11.154-120.469,11.154-142.407
			C283.787,59.796,241.041,0,173.147,0S62.507,59.796,62.507,141.269c0,21.938-15.236,118.348,11.154,142.407
			C110.42,317.19,235.873,317.19,272.633,283.677z"></path>
        <path id="XMLID_49_" d="M283.787,141.269C283.787,59.796,241.041,0,173.147,0v308.811
			c40.553,0,81.106-8.378,99.486-25.135C299.022,259.617,283.787,163.207,283.787,141.269z"></path>
      </g>
      <g id="XMLID_45_">
        <path id="XMLID_237_" d="M216.536,271.577c0,0-14.458-18.417-14.458-81.376h-26.23h-5.002h-26.23
			c0,62.959-14.458,81.376-14.458,81.376c0,47.368,28.832,48.824,40.688,53.239v1.537c0,0,0.922-0.188,2.501-0.68
			c1.579,0.492,2.501,0.68,2.501,0.68v-1.537C187.704,320.401,216.536,318.945,216.536,271.577z"></path>
        <path id="XMLID_238_" d="M202.078,190.201h-26.23l-2.667-0.024v135.472
			c1.579,0.492,2.667,0.704,2.667,0.704v-1.537c11.856-4.414,40.688-5.871,40.688-53.239
			C216.536,271.577,202.078,253.16,202.078,190.201z"></path>
      </g>
      <g id="XMLID_42_">
        <path id="XMLID_44_" d="M214.035,224.629c0,0,3.56,81.376-40.688,81.376
			c-38.653,0-40.688-81.376-40.688-81.376c-44.943,0-76.29,36.433-76.29,81.376v40.688h233.955v-40.688
			C290.325,261.063,258.978,224.629,214.035,224.629z"></path>
        <path id="XMLID_43_" d="M214.035,224.629c0,0,3.56,81.376-40.688,81.376c-0.068,0-0.133-0.006-0.201-0.007
			v40.694h117.178v-40.688C290.325,261.063,258.978,224.629,214.035,224.629z"></path>
      </g>
      <g id="XMLID_39_">
        <path id="XMLID_41_" d="M147.724,83.698c-1.621-2.782-3.112-5.444-4.497-8.014
			c-6.846,14.86-21.742,32.812-34.011,40.928c0.742,22.723,4.312,43.465,8.476,51.153c9.042,16.694,29.221,38.956,55.657,38.956
			c26.431,0,46.607-22.262,55.652-38.956c3.914-7.227,7.305-25.989,8.314-47.089C227.816,120.138,166.226,115.452,147.724,83.698z"></path>
        <path id="XMLID_40_" d="M173.147,105.442v101.274c0.068,0,0.134,0.005,0.202,0.005
			c26.431,0,46.607-22.262,55.652-38.956c3.914-7.227,7.305-25.989,8.314-47.089C230.64,120.298,198.24,117.871,173.147,105.442z"></path>
      </g>
      <g id="XMLID_35_">
        <path id="XMLID_38_" d="M249.891,80.05h-1.539c-0.484-2.237-1.054-4.442-1.729-6.6
			c0.042-0.082,0.098-0.153,0.136-0.238c0.6-1.334,0.643-2.822,0.124-4.189c-11.38-29.909-40.579-50.004-72.656-50.004
			c-0.295,0-0.586,0.017-0.881,0.021c-0.295-0.003-0.586-0.021-0.881-0.021c-32.079,0-61.276,20.095-72.651,50
			c-0.522,1.365-0.48,2.852,0.118,4.187c0.039,0.086,0.096,0.159,0.139,0.243c-0.675,2.159-1.244,4.364-1.728,6.601h-1.539
			c-13.904,0-25.176,11.271-25.176,25.176v20.852c0,13.904,11.271,25.176,25.176,25.176h3.738c0.223,0.188,0.458,0.385,0.685,0.576
			h-2.595c0.81,0.035,1.634,0.058,2.432,0.058c0.08,0,0.149-0.003,0.227-0.003c13.667,11.496,35.863,28.462,48.467,33.089
			c2.372,4.216,8.315,6.968,15.329,6.968c9.211,0,16.427-4.817,16.427-10.966s-7.216-10.967-16.427-10.967
			c-5.14,0-9.901,1.557-12.95,4.153c-8.187-3.214-32.832-25.575-39.822-31.588V80.05h-2.714c7.3-28.473,33.046-49.654,63.746-50.054
			c30.7,0.4,56.446,21.581,63.746,50.054h-2.713v71.204h15.512c13.904,0,25.176-11.271,25.176-25.176v-20.852
			C275.067,91.322,263.795,80.05,249.891,80.05z"></path>
        <g id="XMLID_36_">
          <path id="XMLID_240_" d="M249.891,80.05h-1.539c-0.484-2.237-1.054-4.442-1.729-6.6
				c0.042-0.082,0.098-0.153,0.136-0.238c0.6-1.334,0.643-2.822,0.124-4.189c-11.38-29.909-40.579-50.004-72.656-50.004
				c-0.295,0-0.586,0.017-0.881,0.021c-0.067-0.001-0.133-0.003-0.2-0.005v10.969c0.067-0.001,0.133-0.006,0.2-0.007
				c30.7,0.4,56.446,21.581,63.746,50.054h-2.713v71.204h15.512c13.904,0,25.176-11.271,25.176-25.176v-20.852
				C275.067,91.322,263.795,80.05,249.891,80.05z"></path>
          <path id="XMLID_241_" d="M173.147,171.382v19.188c5.029-1.854,8.368-5.414,8.368-9.594
				C181.515,176.796,178.175,173.236,173.147,171.382z"></path>
        </g>
      </g>
      <g id="XMLID_32_">
        <path id="XMLID_34_" d="M202.69,214.696l2.124,38.557l-31.633,32.346l-31.299-32.346l2.124-38.557
			c-27.652,16.279-46.747,30.277-46.747,30.277l24.99,26.65l29.11,31.06l21.823,23.684l22.156-23.684l29.11-31.06l24.99-26.65
			C249.437,244.973,230.342,230.975,202.69,214.696z"></path>
        <path id="XMLID_33_" d="M202.69,214.696l2.124,38.557l-31.633,32.346v40.768l22.156-23.684l29.11-31.06
			l24.99-26.65C249.437,244.973,230.342,230.975,202.69,214.696z"></path>
      </g>
    </g>
    <g></g>
    <g></g>
    <g></g>
    <g></g>
    <g></g>
    <g></g>
    <g></g>
    <g></g>
    <g></g>
    <g></g>
    <g></g>
    <g></g>
    <g></g>
    <g></g>
    <g></g>
  </symbol>
  <symbol version="1.1" id="avatar4" xmlns="http://www.w3.org/2000/svg" xmlns:xlink="http://www.w3.org/1999/xlink" x="0px" y="0px" xml:space="preserve" viewBox="0 0 329.249 329.249">
    <g id="XMLID_7_">
      <g id="XMLID_62_">
        <g id="XMLID_1121_">
          <path id="XMLID_1122_" d="M247.814,233.696c-18.667-6.681-51.458-11.736-51.458-81.376h-29.23h-5.002
				h-29.23c0,69.64-32.791,74.695-51.458,81.376c0,47.368,68.832,48.824,80.688,53.239v1.537c0,0,0.922-0.188,2.501-0.68
				c1.579,0.492,2.501,0.68,2.501,0.68v-1.537C178.981,282.521,247.814,281.064,247.814,233.696z"></path>
        </g>
        <path id="XMLID_1123_" d="M196.356,152.321h-29.23h-2.501v135.472c1.579,0.492,2.501,0.68,2.501,0.68
			v-1.537c11.856-4.414,80.688-5.871,80.688-53.238C229.147,227.015,196.356,221.961,196.356,152.321z"></path>
      </g>
      <g id="XMLID_58_">
        <g id="XMLID_1124_">
          <path id="XMLID_1125_" d="M164.627,174.483c-27.454,0-48.409-23.119-57.799-40.456
				S90.94,54.582,111.168,27.13c19.808-26.883,53.459-13.838,53.459-13.838s33.649-13.045,53.458,13.838
				c20.226,27.452,13.726,89.56,4.335,106.897C213.028,151.364,192.075,174.483,164.627,174.483z"></path>
        </g>
        <path id="XMLID_1126_" d="M218.085,27.13c-19.81-26.883-53.458-13.838-53.458-13.838h-0.002v161.192
			c0.001,0,0.001,0,0.002,0c27.449,0,48.401-23.119,57.794-40.456C231.811,116.69,238.311,54.583,218.085,27.13z"></path>
      </g>
      <g id="XMLID_55_">
        <ellipse id="XMLID_57_" transform="matrix(0.3543 -0.9351 0.9351 0.3543 46.5967 281.0264)" cx="226.798" cy="106.771" rx="17.187" ry="10.048"></ellipse>
        <ellipse id="XMLID_56_" transform="matrix(0.3543 0.9351 -0.9351 0.3543 166.0001 -26.8553)" cx="102.447" cy="106.778" rx="17.187" ry="10.048"></ellipse>
      </g>
      <g id="XMLID_51_">
        <g id="XMLID_1127_">
          <path id="XMLID_1128_" d="M284.607,288.568v40.681H44.643v-40.681c0-30.431,17.377-56.963,40.605-70.913
				c6.043-3.641,19.69-7.43,26.844-9.196c5.953-1.488,53.438,22.729,53.438,22.729s48.674-23.218,54.627-21.729
				c7.154,1.766,17.802,4.554,23.844,8.196C267.23,231.605,284.607,258.137,284.607,288.568z"></path>
        </g>
        <path id="XMLID_1129_" d="M244.002,217.655c-6.043-3.641-16.69-6.429-23.844-8.196
			c-5.953-1.488-54.627,21.729-54.627,21.729s-0.321-0.164-0.906-0.459v98.52h119.982v-40.681
			C284.607,258.137,267.229,231.605,244.002,217.655z"></path>
      </g>
      <g id="XMLID_48_">
        <polygon id="XMLID_1130_" points="186.292,235.806 164.625,228.973 142.958,235.806 157.272,246.798 
			148.292,329.249 180.958,329.249 171.978,246.798 		"></polygon>
        <polygon id="XMLID_1131_" points="186.292,235.806 164.625,228.973 164.625,329.249 180.958,329.249 
			171.978,246.799 		"></polygon>
      </g>
      <g id="XMLID_45_">
        <path id="XMLID_1132_" d="M212.792,204.681l-48.167,23.441l-48.167-23.441
			c-11.5,5.5,10.396,38.436,14.833,36.833c10.963-3.96,33.334-10.329,33.334-10.329s22.371,6.369,33.334,10.329
			C202.396,243.118,224.292,210.181,212.792,204.681z"></path>
        <path id="XMLID_1133_" d="M212.792,204.681l-48.167,23.441v3.063c0,0,22.371,6.369,33.334,10.329
			C202.396,243.118,224.292,210.181,212.792,204.681z"></path>
      </g>
      <g id="XMLID_41_">
        <g id="XMLID_1134_">
          <path id="XMLID_1135_" d="M206.619,97.84H178.93c-1.185,0-2.356,0.243-3.431,0.713l-10.874,3.873
				l-10.874-3.873c-1.075-0.47-2.246-0.713-3.431-0.713h-27.688c-5.509,0-7.411,9.474-7.411,9.474
				c0,12.532,9.191,22.692,23.756,22.692c8.882,0,17.409-9.44,22.649-17.081h6c5.24,7.641,13.768,17.081,22.649,17.081
				c14.565,0,23.756-10.16,23.756-22.692C214.03,107.314,212.128,97.84,206.619,97.84z"></path>
        </g>
        <path id="XMLID_1136_" d="M206.619,97.84H178.93c-1.185,0-2.356,0.243-3.431,0.713l-10.874,3.873v10.5h3
			c5.24,7.641,13.768,17.081,22.649,17.081c14.565,0,23.756-10.16,23.756-22.692C214.03,107.314,212.128,97.84,206.619,97.84z"></path>
      </g>
      <g id="XMLID_34_">
        <path id="XMLID_1139_" d="M221.773,22.976c-2.16,0.019-25.469-13.121-41.382-16.355
			c-18.766-3.814-18.777-0.529-26.02,1.516c-29.41-9.014-52.972-15.012-51.927,7.003c1.759,37.07-9.345,65.989-4.863,78.938
			s8.466,23.407,8.466,23.407s0.996,3.565,2.988-16.854s-4.579-42.372,11.137-40.379c15.716,1.992,10.785,14.805,44.436,14.805
			c33.391,0,28.719-12.813,44.436-14.805c15.716-1.992,9.145,19.96,11.137,40.379s2.988,16.854,2.988,16.854
			s3.984-10.458,8.466-23.407C236.119,81.129,241.125,22.806,221.773,22.976z"></path>
        <path id="XMLID_1142_" d="M221.773,22.976c-2.16,0.019-25.469-13.121-41.382-16.355
			c-7.986-1.624-12.57-1.958-15.766-1.653v70.088c33.372-0.004,28.706-12.813,44.419-14.804c15.716-1.992,9.145,19.96,11.137,40.379
			s2.988,16.854,2.988,16.854s3.984-10.459,8.466-23.407C236.119,81.129,241.125,22.807,221.773,22.976z"></path>
      </g>
      <g id="XMLID_8_">
        <ellipse id="XMLID_33_" transform="matrix(0.3543 0.9351 -0.9351 0.3543 166.0001 -26.8553)" cx="102.447" cy="106.778" rx="17.187" ry="10.048"></ellipse>
        <ellipse id="XMLID_32_" transform="matrix(0.3543 -0.9351 0.9351 0.3543 46.5967 281.0264)" cx="226.798" cy="106.771" rx="17.187" ry="10.048"></ellipse>
      </g>
    </g>
    <g></g>
    <g></g>
    <g></g>
    <g></g>
    <g></g>
    <g></g>
    <g></g>
    <g></g>
    <g></g>
    <g></g>
    <g></g>
    <g></g>
    <g></g>
    <g></g>
    <g></g>
  </symbol>
  <symbol version="1.1" id="avatar5" xmlns="http://www.w3.org/2000/svg" xmlns:xlink="http://www.w3.org/1999/xlink" x="0px" y="0px" xml:space="preserve" viewBox="0 0 331.108 331.108">
    <g id="XMLID_1481_">
      <g id="XMLID_1482_">
        <g id="XMLID_1483_">
          <path id="XMLID_1484_" d="M248.039,236.042c-18.667-6.681-51.458-11.736-51.458-81.376h-29.23h-5.002
				h-29.23c0,69.64-32.791,74.695-51.458,81.376c0,47.368,68.832,48.824,80.688,53.239v1.537c0,0,0.922-0.188,2.501-0.68
				c1.579,0.492,2.501,0.68,2.501,0.68v-1.537C179.207,284.866,248.039,283.409,248.039,236.042z"></path>
        </g>
        <path id="XMLID_1485_" d="M196.582,154.666h-29.23h-2.251v135.547c1.421,0.433,2.251,0.604,2.251,0.604
			v-1.537c11.855-4.414,80.688-5.871,80.688-53.239C229.373,229.361,196.582,224.306,196.582,154.666z"></path>
      </g>
      <g id="XMLID_1486_">
        <path id="XMLID_1487_" d="M165.103,176.828c-27.454,0-48.409-23.119-57.799-40.456
			s-15.888-79.445,4.34-106.897c19.808-26.883,53.459-13.838,53.459-13.838s33.649-13.045,53.458,13.838
			c20.226,27.452,13.726,89.56,4.335,106.897C213.504,153.709,192.551,176.828,165.103,176.828z"></path>
        <path id="XMLID_1488_" d="M218.561,29.476c-19.81-26.883-53.458-13.838-53.458-13.838h-0.002v161.191h0.002
			c27.449,0,48.401-23.119,57.794-40.456C232.287,119.036,238.787,56.928,218.561,29.476z"></path>
      </g>
      <g id="XMLID_1489_">
        <path id="XMLID_1492_" d="M222.556,25.321c-2.159,0.08-12.282-31.303-39.282-24.303
			c-18.537,4.806-20.877,7.419-28.12,9.463c-29.41-9.014-57.539,14.472-56.495,36.488c1.759,37.07-4.778,36.505-0.295,49.454
			s8.466,23.407,8.466,23.407s0.996,3.565,2.988-16.854s-4.705-31.379,11.137-31.379c52.452,0-19.698,20.372,13.952,20.372
			c33.391,0,59.203-27.381,74.92-29.372c15.716-1.992,9.145,19.96,11.137,40.379s2.988,16.854,2.988,16.854s8.92-9.712,8.466-23.407
			C231.908,80.969,238.788,24.719,222.556,25.321z"></path>
        <path id="XMLID_1493_" d="M222.556,25.322c-2.159,0.08-12.282-31.303-39.282-24.303
			c-9.171,2.377-14.375,4.218-18.173,5.719V85.04c18.973-8.253,34.142-21.103,44.726-22.443c15.717-1.992,9.145,19.96,11.137,40.379
			s2.988,16.854,2.988,16.854s8.92-9.712,8.466-23.407C231.908,80.969,238.788,24.719,222.556,25.322z"></path>
      </g>
      <g id="XMLID_1494_">
        <path id="XMLID_1495_" d="M207.267,101.856h-27.689c-1.185,0-2.356,0.243-3.431,0.713l-10.874,3.873
			l-10.874-3.873c-1.075-0.47-2.246-0.713-3.431-0.713H123.28c-5.509,0-7.411,9.474-7.411,9.474
			c0,12.532,9.191,22.692,23.756,22.692c8.882,0,17.409-9.44,22.649-17.081h6c5.24,7.641,13.768,17.081,22.649,17.081
			c14.565,0,23.756-10.16,23.756-22.692C214.678,111.33,212.776,101.856,207.267,101.856z"></path>
        <path id="XMLID_1496_" d="M207.267,101.856h-27.689c-1.185,0-2.356,0.243-3.431,0.713l-11.041,3.813v10.559
			h3.167c5.24,7.641,13.768,17.081,22.649,17.081c14.565,0,23.756-10.16,23.756-22.692
			C214.678,111.33,212.776,101.856,207.267,101.856z"></path>
      </g>
      <g id="XMLID_1497_">
        <path id="XMLID_1498_" d="M245.383,219.513c-2.201-1.327-5.416-2.538-8.955-3.63
			c-5.291-1.905-11.248-3.442-15.795-4.565c-1.89-0.473-9.146-0.102-15.118-13.184h-79.463
			c-5.328,13.132-11.814,12.767-13.484,13.184c-7.154,1.766-20.802,4.554-26.844,8.195c-23.228,13.951-40.605,40.482-40.605,70.914
			v40.681h239.964h0.906v-40.681C285.988,259.995,268.611,233.464,245.383,219.513z"></path>
        <path id="XMLID_1499_" d="M245.383,219.513c-2.201-1.327-5.416-2.538-8.955-3.63
			c-5.291-1.905-11.248-3.442-15.795-4.565c-1.89-0.473-9.146-0.102-15.118-13.184h-40.867v132.974h120.435h0.906v-40.681
			C285.988,259.995,268.611,233.464,245.383,219.513z"></path>
      </g>
      <g id="XMLID_1500_">
        <g id="XMLID_1504_">
          <g id="XMLID_1502_">
            <path id="XMLID_1503_" d="M231.779,102.653c-0.725,14.745-22.425,29.324-29.599,39.061
					c-16.801,22.803-37.079,3.255-37.079,3.255s-19.826,19.548-36.629-3.255c-7.173-9.735-28.871-24.311-29.596-39.054
					c-1.19,20.863,11.665,42.273,16.381,50.979c7.973,14.719,26.764,34.348,50.072,34.348c23.304,0,42.094-19.629,50.068-34.348
					C220.113,144.932,232.969,123.518,231.779,102.653z"></path>
          </g>
        </g>
        <path id="XMLID_1506_" d="M231.779,102.653c-0.725,14.745-22.424,29.324-29.599,39.061
			c-16.801,22.803-37.08,3.255-37.08,3.255v43.012c0.076,0,0.152,0.006,0.228,0.006c23.304,0,42.094-19.628,50.068-34.348
			C220.113,144.932,232.969,123.518,231.779,102.653z"></path>
      </g>
      <g id="XMLID_1507_">
        <ellipse id="XMLID_33_" transform="matrix(0.3543 -0.9351 0.9351 0.3543 44.7116 282.9862)" cx="227.275" cy="109.116" rx="17.187" ry="10.048"></ellipse>
        <ellipse id="XMLID_32_" transform="matrix(0.3543 0.9351 -0.9351 0.3543 168.501 -25.7861)" cx="102.923" cy="109.124" rx="17.187" ry="10.048"></ellipse>
      </g>
    </g>
    <g></g>
    <g></g>
    <g></g>
    <g></g>
    <g></g>
    <g></g>
    <g></g>
    <g></g>
    <g></g>
    <g></g>
    <g></g>
    <g></g>
    <g></g>
    <g></g>
    <g></g>
  </symbol>
  <symbol version="1.1" id="avatar6" xmlns="http://www.w3.org/2000/svg" xmlns:xlink="http://www.w3.org/1999/xlink" x="0px" y="0px" xml:space="preserve" viewBox="0 0 351.88 351.88">
    <g id="XMLID_27_">
      <g id="XMLID_57_">
        <path id="XMLID_449_" d="M207.324,218.28c43.802,0,77.304-35.54,77.256-79.342c0-0.227,0-0.45,0-0.669
			C284.579,56.796,243.833,0,175.939,0S67.3,56.796,67.3,138.269c0,0.219,0,0.442,0,0.669
			c-0.048,43.802,33.454,79.342,77.256,79.342H207.324z"></path>
        <path id="XMLID_452_" d="M284.579,138.269C284.579,56.796,243.833,0,175.939,0v218.28h31.385
			c43.802,0,77.304-35.54,77.256-79.342C284.579,138.712,284.579,138.489,284.579,138.269z"></path>
      </g>
      <g id="XMLID_54_">
        <path id="XMLID_453_" d="M229.128,269.63c0,0-24.458-18.417-24.458-81.376h-26.23h-5.002h-26.23
			c0,62.959-24.458,81.376-24.458,81.376c0,47.368,38.832,48.824,50.688,53.239v1.537c0,0,0.922-0.188,2.501-0.68
			c1.579,0.492,2.501,0.68,2.501,0.68v-1.537C190.296,318.455,229.128,316.998,229.128,269.63z"></path>
        <path id="XMLID_454_" d="M204.671,188.255h-26.23h-2.501v135.471c1.579,0.492,2.501,0.68,2.501,0.68v-1.537
			c11.856-4.414,50.688-5.871,50.688-53.239C229.128,269.63,204.671,251.214,204.671,188.255z"></path>
      </g>
      <g id="XMLID_51_">
        <path id="XMLID_455_" d="M175.939,65.598c-4.824,6.079-42.15,35.573-64.201,45.712
			c0.552,23.685,4.23,45.675,8.546,53.643c9.042,16.694,29.221,38.956,55.657,38.956c26.431,0,46.607-22.262,55.652-38.956
			c4.315-7.968,7.995-29.958,8.547-53.643C218.089,101.171,180.764,71.677,175.939,65.598z"></path>
        <path id="XMLID_458_" d="M175.939,65.598v138.311c0.001,0,0.001,0,0.002,0
			c26.431,0,46.607-22.262,55.652-38.956c4.315-7.968,7.995-29.958,8.547-53.643C218.089,101.171,180.764,71.677,175.939,65.598z"></path>
      </g>
      <g id="XMLID_44_">
        <path id="XMLID_459_" d="M124.299,110.857c-6.316,0-8.496,11.536-8.496,11.536
			c0,15.259,10.537,27.63,27.236,27.63s32.317-30.921,31.991-32.384l-11.361-5.768c-1.312-0.666-2.763-1.013-4.235-1.013h-35.135
			V110.857z"></path>
        <path id="XMLID_49_" d="M227.58,110.857c6.316,0,8.496,11.536,8.496,11.536
			c0,15.259-10.537,27.63-27.236,27.63s-32.317-30.921-31.991-32.384l12.758-5.914c1.233-0.571,2.575-0.867,3.934-0.867h34.039
			V110.857z"></path>
        <path id="XMLID_460_" d="M240.499,121.558c-0.294-1.556-3.155-15.2-12.918-15.2h-34.038
			c-1.999,0-4.014,0.444-5.827,1.285l-11.728,5.436l-10.283-5.22c-1.934-0.981-4.103-1.5-6.271-1.5H124.3
			c-9.764,0-12.625,13.644-12.918,15.2l-0.078,0.414v0.421c0,18.617,13.347,32.129,31.736,32.129
			c7.997,0,16.214-5.194,24.423-15.437c4.029-5.028,7.008-10.023,8.478-12.656c1.47,2.633,4.449,7.628,8.478,12.656
			c8.209,10.243,16.427,15.437,24.423,15.437c18.389,0,31.736-13.512,31.736-32.129v-0.421L240.499,121.558z M143.038,145.523
			c-13.241,0-22.533-9.307-22.733-22.688c0.796-3.642,2.822-7.477,3.993-7.477h35.135c0.76,0,1.52,0.182,2.197,0.526l7.71,3.914
			C165.342,127.698,153.492,145.523,143.038,145.523z M208.841,145.523c-10.395,0-22.172-17.627-26.235-25.592l8.895-4.123
			c0.635-0.294,1.341-0.45,2.042-0.45h34.038c1.172,0,3.2,3.841,3.993,7.476C231.374,136.217,222.083,145.523,208.841,145.523z"></path>
      </g>
      <path id="XMLID_41_" d="M240.499,121.558c-0.294-1.556-3.155-15.2-12.918-15.2h-34.038c-1.999,0-4.014,0.444-5.827,1.285
		l-11.728,5.436l-0.048-0.024v13.375c1.47,2.633,4.449,7.628,8.478,12.656c8.209,10.243,16.427,15.437,24.423,15.437
		c18.389,0,31.736-13.512,31.736-32.129v-0.421L240.499,121.558z M208.841,145.523c-10.395,0-22.172-17.627-26.235-25.592
		l8.895-4.123c0.635-0.294,1.341-0.45,2.042-0.45h34.038c1.172,0,3.2,3.841,3.993,7.476
		C231.374,136.217,222.083,145.523,208.841,145.523z"></path>
      <g id="XMLID_34_">
        <path id="XMLID_38_" d="M292.918,351.88H58.963v-40.688c0-44.943,31.347-81.376,76.29-81.376
			c0,0,11.421,103.575,41.593,103.575s39.782-103.575,39.782-103.575c44.943,0,76.29,36.433,76.29,81.376V351.88z"></path>
        <path id="XMLID_35_" d="M216.628,229.817c0,0-9.61,103.575-39.782,103.575
			c-0.305,0-0.605-0.028-0.906-0.049v18.537h116.977v-40.688C292.918,266.25,261.57,229.817,216.628,229.817z"></path>
      </g>
      <g id="XMLID_28_">
        <path id="XMLID_470_" d="M216.863,230.296c0,35.667-18.098,107.895-40.423,107.895
			s-41.423-72.228-41.423-107.895c0-5.587,19.098,39.58,41.423,39.58S216.863,224.75,216.863,230.296z"></path>
        <path id="XMLID_472_" d="M176.439,269.875c-0.167,0-0.333-0.011-0.5-0.016v68.305
			c0.167,0.008,0.333,0.025,0.5,0.025c22.325,0,40.423-72.228,40.423-107.895C216.863,224.75,198.764,269.875,176.439,269.875z"></path>
      </g>
    </g>
    <g></g>
    <g></g>
    <g></g>
    <g></g>
    <g></g>
    <g></g>
    <g></g>
    <g></g>
    <g></g>
    <g></g>
    <g></g>
    <g></g>
    <g></g>
    <g></g>
    <g></g>
  </symbol>
  <symbol version="1.1" id="avatar1" xmlns="http://www.w3.org/2000/svg" xmlns:xlink="http://www.w3.org/1999/xlink" x="0px" y="0px" xml:space="preserve" viewBox="0 0 333.549 333.549">
    <g id="XMLID_8_">
      <g id="XMLID_66_">
        <path id="XMLID_1095_" d="M249.963,237.405c-18.667-6.681-51.458-11.736-51.458-81.376h-29.23h-5.002
			h-29.23c0,69.64-32.791,74.695-51.458,81.376c0,47.368,68.832,48.824,80.688,53.239v1.537c0,0,0.922-0.188,2.501-0.68
			c1.579,0.492,2.501,0.68,2.501,0.68v-1.537C181.13,286.23,249.963,284.773,249.963,237.405z"></path>
        <path id="XMLID_1096_" d="M198.505,156.03h-29.23h-2.167v135.573c1.37,0.414,2.167,0.579,2.167,0.579
			v-1.537c11.856-4.414,80.688-5.871,80.688-53.239C231.296,230.725,198.505,225.669,198.505,156.03z"></path>
      </g>
      <g id="XMLID_63_">
        <path id="XMLID_1097_" d="M166.776,178.782c-27.454,0-48.409-23.119-57.799-40.456
			s-15.888-69.445,4.34-96.897c19.808-26.883,53.459-23.838,53.459-23.838s33.649-3.045,53.458,23.838
			c20.226,27.452,13.726,79.56,4.335,96.897C215.177,155.663,194.224,178.782,166.776,178.782z"></path>
        <path id="XMLID_1098_" d="M220.234,41.429c-18.683-25.354-49.661-24.088-53.127-23.862v161.206
			c27.285-0.186,48.108-23.181,57.462-40.447C233.96,120.989,240.46,68.882,220.234,41.429z"></path>
      </g>
      <g id="XMLID_59_">
        <g id="XMLID_1099_">
          <path id="XMLID_1100_" d="M286.756,292.867v40.681H46.792v-40.681c0-30.431,17.377-56.963,40.605-70.913
				c6.043-3.641,19.69-6.43,26.844-8.196c5.953-1.488,52.866,21.691,52.866,21.691s49.246-23.179,55.199-21.691
				c7.154,1.766,17.802,4.554,23.844,8.196C269.379,235.904,286.756,262.436,286.756,292.867z"></path>
        </g>
        <path id="XMLID_1101_" d="M246.151,221.954c-6.043-3.641-16.69-6.429-23.844-8.195
			c-5.678-1.42-51.05,19.746-55.199,21.691v98.099h119.648v-40.681C286.756,262.436,269.379,235.904,246.151,221.954z"></path>
      </g>
      <g id="XMLID_54_">
        <g id="XMLID_1102_">
          <path id="XMLID_1103_" d="M122.774,235.314c-4.437,1.603-18.333-21.333-6.833-26.833l50.167,26.505
				C166.107,234.985,133.736,231.354,122.774,235.314z"></path>
        </g>
        <g id="XMLID_1104_">
          <path id="XMLID_56_" d="M211.441,235.314c4.437,1.603,18.333-21.333,6.833-26.833l-50.167,26.505
				C168.107,234.985,200.478,231.354,211.441,235.314z"></path>
        </g>
      </g>
      <g id="XMLID_46_">
        <g id="XMLID_1105_">
          <path id="XMLID_1108_" d="M246.604,221.624c-2.201-1.327-5.416-2.538-8.954-3.63
				c-3.631-1.308-7.562-2.436-11.147-3.38c-2.841,30.494-28.492,54.367-59.728,54.367c-31.096,0-56.665-23.657-59.697-53.955
				c-7.077,1.69-15.672,3.91-20.133,6.599c-23.228,13.951-40.605,40.482-40.605,70.914v40.681h120.887h119.076h0.906v-40.681
				C287.208,262.107,269.831,235.575,246.604,221.624z"></path>
        </g>
        <path id="XMLID_1111_" d="M246.604,221.625c-2.201-1.327-5.416-2.538-8.954-3.63
			c-3.631-1.308-7.562-2.436-11.147-3.38c-2.831,30.385-28.31,54.188-59.395,54.359v64.246h0.12h119.076h0.906v-40.681
			C287.208,262.107,269.831,235.575,246.604,221.625z"></path>
      </g>
      <g id="XMLID_37_">
        <g id="XMLID_1112_">
          <path id="XMLID_1113_" d="M191.052,135.913c-13.237,0-19.616-9.66-24.254-16.87
				c-0.231,0.383-0.464,0.772-0.701,1.168c-4.188,6.995-9.399,15.702-23.601,15.702c-15.926,0-27.486-11.392-27.486-27.088v-0.414
				l0.078-0.408c0.424-2.204,2.991-13.202,11.937-13.202h26.208c1.872,0,3.755,0.408,5.446,1.179l0.64,0.292l7.456,6.321
				l7.455-6.321l0.64-0.292c1.691-0.771,3.574-1.179,5.446-1.179h26.209c8.945,0,11.512,10.997,11.936,13.202l0.078,0.408v0.414
				C218.538,124.52,206.978,135.913,191.052,135.913z M172.71,110.16l1.168,1.778c0.439,0.668,0.877,1.349,1.32,2.037
				c5.048,7.851,8.634,12.617,15.854,12.617c10.151,0,17.284-7.103,17.481-17.33c-0.485-2.106-1.558-4.465-2.338-5.141h-25.88
				c-0.188,0-0.375,0.021-0.557,0.063L172.71,110.16z M125.014,109.254c0.194,10.232,7.328,17.338,17.482,17.338
				c7.943,0,10.692-3.946,14.868-10.922c0.733-1.225,1.491-2.491,2.306-3.733l1.168-1.779l-7.048-5.975
				c-0.182-0.042-0.368-0.063-0.557-0.063h-25.88C126.572,104.799,125.485,107.185,125.014,109.254z"></path>
        </g>
        <path id="XMLID_1117_" d="M218.46,108.003c-0.424-2.205-2.991-13.202-11.936-13.202h-26.209
			c-1.872,0-3.755,0.408-5.446,1.179l-0.64,0.292l-7.122,6.039v17.211c4.614,7.151,10.995,16.391,23.945,16.391
			c15.926,0,27.486-11.393,27.486-27.088v-0.414L218.46,108.003z M191.052,126.593c-7.221,0-10.807-4.767-15.854-12.618
			c-0.442-0.688-0.881-1.369-1.32-2.037l-1.168-1.778l7.048-5.976c0.182-0.042,0.368-0.063,0.557-0.063h25.88
			c0.781,0.676,1.853,3.036,2.338,5.142C208.336,119.49,201.203,126.593,191.052,126.593z"></path>
      </g>
      <g id="XMLID_34_">
        <path id="XMLID_36_" d="M202.113,25.918c0,0-24.427-32.813-39.707-24.598
			c-39.045,20.991-44.219,18.365-52.979,21.408c-21.241,7.378-21.798-2.595-19.122,13.776c8.879,54.319-0.557,79.337,15.961,59.147
			s22.025-15.423,64.073-20.012s15.256-23.363,37.28-8.18s24.919,42.732,28.589,42.732c3.671,0,11.84-52.59,6.283-68.911
			C230.629,6.439,202.113,25.918,202.113,25.918z"></path>
        <path id="XMLID_1120_" d="M242.491,41.281c-11.862-34.842-40.378-15.362-40.378-15.362
			s-19.894-26.72-35.005-25.896V75.98c1.057-0.108,2.124-0.219,3.231-0.34c42.047-4.588,15.256-23.363,37.28-8.18
			c22.025,15.184,24.919,42.732,28.589,42.732S248.048,57.603,242.491,41.281z"></path>
      </g>
      <g id="XMLID_9_">
        <ellipse id="XMLID_33_" transform="matrix(0.3543 0.9351 -0.9351 0.3543 171.4079 -26.089)" cx="104.596" cy="111.077" rx="17.187" ry="10.048"></ellipse>
        <ellipse id="XMLID_32_" transform="matrix(0.3543 -0.9351 0.9351 0.3543 43.9645 285.8114)" cx="228.947" cy="111.07" rx="17.187" ry="10.048"></ellipse>
      </g>
    </g>
    <g></g>
    <g></g>
    <g></g>
    <g></g>
    <g></g>
    <g></g>
    <g></g>
    <g></g>
    <g></g>
    <g></g>
    <g></g>
    <g></g>
    <g></g>
    <g></g>
    <g></g>
  </symbol>
  <symbol xmlnsRdf="http://www.w3.org/1999/02/22-rdf-syntax-ns#" xmlns="http://www.w3.org/2000/svg" xmlnsCc="http://creativecommons.org/ns#" xmlnsDc="http://purl.org/dc/elements/1.1/" xmlnsSvg="http://www.w3.org/2000/svg" id="cover" version="1.1" viewBox="0 0 744.09 1052.4">
    <g id="layer1">
      <g id="g6187" stroke="#000" transform="matrix(3.7993 0 0 3.7993 -4183.9 954.19)">
        <path id="path6150" stroke-width=".23457px" d="m1189.5-202.85c-4.2621 0.15653-6.8551 8.6542-12.516 6.2972-6.9677-2.901-11.146 13.539-18.114 12.572-6.9677-0.96701-6.9706 19.823-11.151 16.438-4.1806-3.3845-0.9269 14.023-0.9269 14.023l-23.904 18.809c7.8641 10.206 9.2702 19.706 41.091 25.188 0 0 0.4373 0.16154 1.1568 0.41882l-17.747 39.234-27.267 11.622 16.425 33.505 22.008 22.564 24.178 8.1063 19.481 0.69182-11.801-50.851-10.512-12.303 7.2282-12.654s-20.367-24.27-21.024-25.637c-0.4902-1.0205-0.2475-9.6529-0.093-13.97 6.1894 2.1784 24.073 8.1107 14.226 0.23932-17.083-13.656-5.4935-76.087 9.7501-75.424 9.34 0.40629 19.345 3.0612 27.871-1.4509 12.938-6.847 31.99 37.431 19.486 42.068 9.1394 9.8144 2.7015 34.464 0.4598 40.131 11.109-6.8023 26.909-5.8043 32.52-21.763 0 0-26.941-26.594-25.083-31.912 1.858-5.3185-7.8989-17.405-8.3634-23.207-0.4646-5.802-17.626-8.6998-23.201-15.952-5.5742-7.2525-14.398 0.4846-20.901-5.3174-1.2193-1.0879-2.2928-1.502-3.2764-1.4658zm11.173 49.816-7.8964 12.086c5.1097-4.4186 10.223-3.7863 15.333-0.48613zm31.126 0.47864-7.4365 9.6701c3.2954-0.74174 6.356-4.4775 10.224 1.937zm-12.308 7.0151 6.2654 23.446-7.8964 3.8666-6.5025-6.2822 3.2549-4.3527-5.5757 1.4509-1.3939 5.3174 3.7147 5.8036 8.3634 2.4156 7.4294-3.8665 0.467-6.2822c2.1549-2.243-6.5871-21.185-8.1263-21.517zm-14.004 37.013c-0.3103 0.9314-3.2261 10.268-3.2261 10.268 7.4386-0.90829 13.954 1.6356 20.413 4.42l1.7172-11.465c-12.938 4.7612-16.557-0.4761-18.904-3.2234zm-30.838 4.1283s4.0749 23.576 37.772 24.269c3.3759 0.06942 6.4798-1.0339 9.24-2.7447l-4.6416 27.365s17.737 3.4189 11.496 7.1797c-6.2407 3.7608 3.9426 1.3686 1.3149 6.1551-4.074 7.4211 11.827-3.7672 4.929 3.7544-6.8977 7.5215 7.5545 4.7864 0 9.5729-7.5546 4.7864 15.103 4.4478 5.9061 8.8923s8.2115 1.3665 2.2992 5.811-1.5338 6.3525-1.5338 6.3525l18.394-18.121 8.7621-16.95-36.788-12.647 2.6298-12.654-11.827-6.8356-0.5532-8.1295c6.1919-4.0118 10.584-10.956 12.437-14.202-2.7137 4.0341-10.605 12.707-20.42 12.415-11.496-0.34189-30.22-5.4649-39.417-19.482zm59.837 7.0675c0.4649-0.69098 0.7828-1.2505 0.9269-1.6005 0.2257-0.54819-0.122 0.19084-0.9269 1.6005z"></path>
        <path id="path6166" d="m1878.9 564.46c0 278.39-190.85 504.07-426.28 504.07s-426.28-225.68-426.28-504.07 190.85-504.07 426.28-504.07 426.28 225.68 426.28 504.07z" stroke-width="46.946" fill="none" transform="matrix(.20261 0 0 .22395 903.81 -232.01)"></path>
      </g>
    </g>
    <metadata>
      <rdf:RDF>
        <cc:Work>
          <dc:format>image/svg+xml</dc:format>
          <dc:type rdfResource="http://purl.org/dc/dcmitype/StillImage"></dc:type>
          <cc:license rdfResource="http://creativecommons.org/licenses/publicdomain/"></cc:license>
          <dc:publisher>
            <cc:Agent rdfAbout="http://openclipart.org/">
              <dc:title>Openclipart</dc:title>
            </cc:Agent>
          </dc:publisher>
          <dc:title>George Washington</dc:title>
          <dc:date>2012-03-31T19:54:26</dc:date>
          <dc:description>Caricature of the first American president, George Washington, based on the $1 bill portrait</dc:description>
          <dc:source>http://openclipart.org/detail/169250/george-washington-by-last-dino</dc:source>
          <dc:creator>
            <cc:Agent>
              <dc:title>Last-Dino</dc:title>
            </cc:Agent>
          </dc:creator>
          <dc:subject>
            <rdf:Bag>
              <rdf:li>George</rdf:li>
              <rdf:li>america</rdf:li>
              <rdf:li>b&amp;amp;w</rdf:li>
              <rdf:li>b-w</rdf:li>
              <rdf:li>b/w</rdf:li>
              <rdf:li>black</rdf:li>
              <rdf:li>bw</rdf:li>
              <rdf:li>cartoon</rdf:li>
              <rdf:li>clip art</rdf:li>
              <rdf:li>clipart</rdf:li>
              <rdf:li>dollar</rdf:li>
              <rdf:li>founder</rdf:li>
              <rdf:li>independence</rdf:li>
              <rdf:li>july</rdf:li>
              <rdf:li>money</rdf:li>
              <rdf:li>president</rdf:li>
              <rdf:li>united states</rdf:li>
              <rdf:li>usa</rdf:li>
              <rdf:li>washington</rdf:li>
              <rdf:li>white</rdf:li>
            </rdf:Bag>
          </dc:subject>
        </cc:Work>
        <cc:License rdfAbout="http://creativecommons.org/licenses/publicdomain/">
          <cc:permits rdfResource="http://creativecommons.org/ns#Reproduction"></cc:permits>
          <cc:permits rdfResource="http://creativecommons.org/ns#Distribution"></cc:permits>
          <cc:permits rdfResource="http://creativecommons.org/ns#DerivativeWorks"></cc:permits>
        </cc:License>
      </rdf:RDF>
    </metadata>
  </symbol>
</svg>